PathFileType	4	(X/Y/Z)	C:/Users/opensim2020/Desktop/walking_exp_matlab/subject02_walking11_straight_01.trc	
DataRate	CameraRate	NumFrames	NumMarkers	Units	OrigDataRate	OrigDataStartFrame	OrigNumFrames	
100.00	100.00	4	42	mm	100.00	800	267	
Frame#	Time	LFHD			RFHD			LBHD			RBHD			C7			T10			CLAV			STRN			RBAK			LSHO			LUPA			LELB			LFRM			LWRA			LWRB			LFIN			RSHO			RUPA			RELB			RFRM			RWRA			RWRB			RFIN			LASI			RASI			LPSI			RPSI			LTHI			LKNE			LTIB			LANK			LHEE			LTOE			RTHI			RKNE			RTIB			RANK			RHEE			RTOE			*39			*40			*41			
		X1	Y1	Z1	X2	Y2	Z2	X3	Y3	Z3	X4	Y4	Z4	X5	Y5	Z5	X6	Y6	Z6	X7	Y7	Z7	X8	Y8	Z8	X9	Y9	Z9	X10	Y10	Z10	X11	Y11	Z11	X12	Y12	Z12	X13	Y13	Z13	X14	Y14	Z14	X15	Y15	Z15	X16	Y16	Z16	X17	Y17	Z17	X18	Y18	Z18	X19	Y19	Z19	X20	Y20	Z20	X21	Y21	Z21	X22	Y22	Z22	X23	Y23	Z23	X24	Y24	Z24	X25	Y25	Z25	X26	Y26	Z26	X27	Y27	Z27	X28	Y28	Z28	X29	Y29	Z29	X30	Y30	Z30	X31	Y31	Z31	X32	Y32	Z32	X33	Y33	Z33	X34	Y34	Z34	X35	Y35	Z35	X36	Y36	Z36	X37	Y37	Z37	X38	Y38	Z38	X39	Y39	Z39	X40	Y40	Z40	X41	Y41	Z41	X42	Y42	Z42	

67	0.660	1383.46106	-742.14911	1751.77417	1526.55396	-731.76819	1736.27576	1380.45154	-845.33795	1642.36401	1522.32202	-846.83136	1621.57617	1450.76465	-870.61383	1514.05933	1453.62341	-916.83563	1240.31104	1440.17615	-727.91577	1454.75281	1455.81946	-671.16833	1283.17529	1518.28857	-923.23218	1343.41675	1269.71851	-798.37799	1487.73987	1184.77307	-821.39679	1287.12537	1171.74622	-833.28253	1149.14941	1149.99243	-837.20337	1019.87866	1170.11560	-795.58496	887.21210	1138.66382	-840.39215	897.85602	1129.91431	-830.80365	832.22711	1637.27844	-788.73151	1491.05615	1725.19226	-809.57056	1300.93127	1744.15784	-787.97150	1155.08228	1760.61084	-741.22742	1043.11462	1735.43665	-675.16565	925.76172	1769.48413	-718.89209	914.45941	1769.48877	-671.54535	859.26263	1330.18457	-663.22498	992.65118	1582.58862	-691.10742	963.65466	1386.33142	-882.04700	1025.15588	1500.50696	-898.76398	1018.36340	1271.95569	-690.65033	680.19202	1305.62817	-703.86847	475.90778	1308.81482	-742.94562	283.53799	1355.25806	-726.24310	64.43008	1407.32410	-762.35150	37.61600	1345.42834	-570.08923	31.79884	1662.18506	-784.55511	662.77197	1663.99988	-782.44495	464.07715	1654.51770	-927.95227	353.73795	1610.08081	-1063.03162	220.29424	1541.81287	-1106.57007	199.79764	1650.08350	-1016.99866	68.44139	1477.02136	-854.84253	1785.96326	-3360.29565	2845.19897	1034.16821			 
68	0.670	1381.84155	-735.09180	1752.85156	1524.96924	-724.47455	1737.38037	1378.96265	-837.77875	1643.06934	1520.77039	-839.00916	1622.22046	1448.79187	-862.40228	1515.12646	1451.26257	-909.04724	1241.44629	1438.66675	-719.90680	1455.47266	1454.33289	-663.63965	1283.67444	1515.53223	-915.35083	1343.99854	1267.88721	-789.22693	1488.67432	1182.82483	-810.78802	1287.82312	1169.09143	-821.56555	1149.65613	1147.62329	-823.83551	1020.27979	1169.80896	-778.42639	888.46326	1137.05676	-824.77386	898.05115	1128.14575	-813.10699	832.97742	1635.75281	-781.30499	1491.63342	1723.41418	-802.60388	1301.44177	1742.51257	-781.33838	1155.69678	1758.70715	-735.21002	1043.41296	1733.93774	-669.02655	925.93719	1767.76367	-712.99878	914.78131	1768.01147	-665.68201	859.62073	1328.86963	-655.94720	992.09436	1581.99121	-684.41382	964.78827	1384.05286	-874.68188	1026.25378	1497.72375	-892.14728	1019.24908	1270.75000	-687.32379	680.11029	1304.75452	-702.09558	475.89587	1308.20361	-741.70795	283.62018	1355.26563	-726.44147	64.58437	1407.26550	-762.62134	37.73035	1345.39868	-570.19031	31.85428	1661.50342	-771.94073	664.11633	1662.85999	-766.02856	465.80573	1652.10022	-911.30951	355.42111	1607.23694	-1045.17419	220.67915	1538.58093	-1088.03601	198.20468	1651.88232	-997.81122	71.27443	1475.50000	-847.83105	1786.55371	-3357.45117	2845.90161	1034.24878			 
69	0.680	1380.34778	-727.92859	1753.90637	1523.45703	-717.11322	1738.43384	1377.51831	-830.21954	1643.66284	1519.35034	-831.21228	1622.77271	1446.83215	-854.20770	1516.18628	1448.88647	-901.30664	1242.55933	1437.27771	-711.94281	1456.16443	1452.93347	-656.00476	1284.20398	1513.11304	-907.84753	1345.09204	1266.12744	-780.09705	1489.64819	1180.69409	-799.82031	1288.46985	1166.58545	-809.32813	1150.11267	1145.74768	-809.58234	1020.67932	1169.07959	-762.62036	889.89215	1135.84363	-808.07648	898.09924	1127.30835	-794.97321	833.54047	1634.16675	-773.76068	1492.26538	1721.55725	-795.64160	1302.20825	1740.71838	-774.62665	1156.25171	1757.06921	-728.92151	1043.87537	1732.11816	-663.33978	926.29865	1766.12122	-707.12915	915.22119	1766.41394	-659.91248	859.89844	1327.61865	-648.71539	991.79150	1581.35999	-677.75012	966.03387	1381.98499	-867.59229	1027.42627	1495.25696	-885.45178	1020.26581	1269.76965	-683.60986	680.05176	1303.91309	-700.28223	475.76819	1307.90100	-741.16656	283.80637	1355.32703	-726.57019	64.60189	1407.33228	-762.65045	37.65802	1345.29993	-570.24518	31.77930	1660.84875	-759.40350	665.53717	1661.70642	-750.01080	467.45892	1649.72156	-894.49310	356.28326	1604.46082	-1026.80127	220.07050	1535.58105	-1068.85193	195.55836	1653.17737	-977.62805	73.21870	1474.10828	-840.75391	1787.09814						 
70	0.690	1379.06238	-720.73816	1754.91577	1522.18579	-709.78253	1739.31189	1376.14746	-822.59662	1644.20349	1517.98511	-823.39679	1623.22546	1444.98950	-846.11469	1517.19666	1446.54199	-893.65375	1243.62415	1435.90295	-703.98352	1456.84277	1451.49097	-648.41632	1284.65112	1511.01001	-900.21674	1346.29700	1264.47058	-771.07788	1490.70117	1178.47559	-789.57819	1289.49585	1164.03369	-797.40857	1150.87573	1143.89624	-794.95135	1020.94604	1167.74670	-747.31024	891.40820	1134.62244	-791.74750	898.72601	1125.94812	-776.98907	834.71350	1632.55615	-766.36188	1492.79370	1719.80310	-788.59912	1302.85742	1739.14063	-768.04919	1156.89185	1755.41370	-722.71387	1044.35376	1730.84863	-657.14075	926.78705	1764.61853	-701.21985	915.67499	1764.98474	-654.09943	860.39215	1326.03186	-642.07184	991.30499	1580.54089	-671.05316	967.38531	1380.06445	-861.33490	1028.66003	1493.15833	-878.57159	1021.27844	1268.56323	-679.76581	679.67474	1303.18103	-698.59851	475.68939	1307.97693	-741.07880	284.05786	1355.46436	-726.55804	64.51344	1407.48413	-762.50275	37.55997	1345.18665	-570.28589	31.74248	1660.30542	-746.86353	667.01166	1660.42419	-734.36694	469.14432	1647.47339	-877.72211	356.67029	1601.86694	-1007.97589	218.59430	1532.82031	-1049.20300	191.95612	1653.80334	-956.13629	73.93776	1472.85938	-833.63861	1787.56067						 
